<mxfile host="65bd71144e">
    <diagram name="Page-1" id="42789a77-a242-8287-6e28-9cd8cfd52e62">
        <mxGraphModel dx="1968" dy="933" grid="1" gridSize="10" guides="1" tooltips="1" connect="1" arrows="1" fold="1" page="0" pageScale="1" pageWidth="850" pageHeight="1100" background="none" math="0" shadow="0">
            <root>
                <mxCell id="0"/>
                <mxCell id="1" parent="0"/>
                <mxCell id="Oey2IrYE4KCGNufRBFbs-25" value="" style="edgeStyle=orthogonalEdgeStyle;rounded=0;orthogonalLoop=1;jettySize=auto;html=1;" parent="1" source="1ea317790d2ca983-2" target="Oey2IrYE4KCGNufRBFbs-24" edge="1">
                    <mxGeometry relative="1" as="geometry"/>
                </mxCell>
                <mxCell id="1ea317790d2ca983-2" value="&lt;span&gt;Inline transforms&lt;/span&gt;" style="ellipse;whiteSpace=wrap;html=1;rounded=0;shadow=0;comic=0;labelBackgroundColor=none;strokeWidth=1;fontFamily=Verdana;fontSize=14;align=center;fillColor=#ffcc99;strokeColor=#36393d;" parent="1" vertex="1">
                    <mxGeometry x="450" y="160" width="95" height="65" as="geometry"/>
                </mxCell>
                <mxCell id="Oey2IrYE4KCGNufRBFbs-32" value="" style="edgeStyle=orthogonalEdgeStyle;rounded=0;orthogonalLoop=1;jettySize=auto;html=1;" parent="1" source="1ea317790d2ca983-3" target="Oey2IrYE4KCGNufRBFbs-31" edge="1">
                    <mxGeometry relative="1" as="geometry"/>
                </mxCell>
                <mxCell id="1ea317790d2ca983-3" value="Wherever you explain" style="ellipse;whiteSpace=wrap;html=1;rounded=0;shadow=0;comic=0;labelBackgroundColor=none;strokeWidth=1;fontFamily=Verdana;fontSize=14;align=center;fillColor=#ffcc99;strokeColor=#36393d;" parent="1" vertex="1">
                    <mxGeometry x="700" y="160" width="95" height="65" as="geometry"/>
                </mxCell>
                <mxCell id="Oey2IrYE4KCGNufRBFbs-6" value="" style="edgeStyle=orthogonalEdgeStyle;rounded=0;orthogonalLoop=1;jettySize=auto;html=1;" parent="1" source="1ea317790d2ca983-9" target="Oey2IrYE4KCGNufRBFbs-5" edge="1">
                    <mxGeometry relative="1" as="geometry"/>
                </mxCell>
                <mxCell id="Oey2IrYE4KCGNufRBFbs-7" value="But how did you &lt;br&gt;get that number?" style="edgeLabel;html=1;align=center;verticalAlign=middle;resizable=0;points=[];" parent="Oey2IrYE4KCGNufRBFbs-6" vertex="1" connectable="0">
                    <mxGeometry x="-0.2571" y="4" relative="1" as="geometry">
                        <mxPoint as="offset"/>
                    </mxGeometry>
                </mxCell>
                <mxCell id="1ea317790d2ca983-9" value="Big Quote" style="ellipse;whiteSpace=wrap;html=1;rounded=0;shadow=0;comic=0;labelBackgroundColor=none;strokeWidth=1;fontFamily=Verdana;fontSize=14;align=center;fillColor=#ffcc99;strokeColor=#36393d;" parent="1" vertex="1">
                    <mxGeometry x="200" y="160" width="95" height="65" as="geometry"/>
                </mxCell>
                <mxCell id="Oey2IrYE4KCGNufRBFbs-9" value="" style="edgeStyle=orthogonalEdgeStyle;rounded=0;orthogonalLoop=1;jettySize=auto;html=1;" parent="1" source="Oey2IrYE4KCGNufRBFbs-5" target="Oey2IrYE4KCGNufRBFbs-8" edge="1">
                    <mxGeometry relative="1" as="geometry"/>
                </mxCell>
                <mxCell id="Oey2IrYE4KCGNufRBFbs-16" value="Sadness of Rmd" style="edgeLabel;html=1;align=center;verticalAlign=middle;resizable=0;points=[];" parent="Oey2IrYE4KCGNufRBFbs-9" vertex="1" connectable="0">
                    <mxGeometry x="-0.15" relative="1" as="geometry">
                        <mxPoint as="offset"/>
                    </mxGeometry>
                </mxCell>
                <mxCell id="Oey2IrYE4KCGNufRBFbs-13" value="" style="edgeStyle=orthogonalEdgeStyle;rounded=0;orthogonalLoop=1;jettySize=auto;html=1;" parent="1" source="Oey2IrYE4KCGNufRBFbs-5" edge="1">
                    <mxGeometry relative="1" as="geometry">
                        <mxPoint x="115" y="345" as="targetPoint"/>
                    </mxGeometry>
                </mxCell>
                <mxCell id="Oey2IrYE4KCGNufRBFbs-5" value="promise and magic of Rmd" style="ellipse;whiteSpace=wrap;html=1;rounded=0;shadow=0;comic=0;labelBackgroundColor=none;strokeWidth=1;fontFamily=Verdana;fontSize=12;align=center;" parent="1" vertex="1">
                    <mxGeometry x="195" y="310" width="105" height="70" as="geometry"/>
                </mxCell>
                <mxCell id="Oey2IrYE4KCGNufRBFbs-18" style="edgeStyle=orthogonalEdgeStyle;rounded=0;orthogonalLoop=1;jettySize=auto;html=1;exitX=0;exitY=0.5;exitDx=0;exitDy=0;" parent="1" source="Oey2IrYE4KCGNufRBFbs-8" target="Oey2IrYE4KCGNufRBFbs-17" edge="1">
                    <mxGeometry relative="1" as="geometry"/>
                </mxCell>
                <mxCell id="Oey2IrYE4KCGNufRBFbs-26" style="edgeStyle=orthogonalEdgeStyle;rounded=0;orthogonalLoop=1;jettySize=auto;html=1;exitX=1;exitY=0.5;exitDx=0;exitDy=0;entryX=0;entryY=0.5;entryDx=0;entryDy=0;dashed=1;" parent="1" source="Oey2IrYE4KCGNufRBFbs-8" target="1ea317790d2ca983-2" edge="1">
                    <mxGeometry relative="1" as="geometry"/>
                </mxCell>
                <mxCell id="Oey2IrYE4KCGNufRBFbs-46" value="formatting" style="edgeLabel;html=1;align=center;verticalAlign=middle;resizable=0;points=[];" parent="Oey2IrYE4KCGNufRBFbs-26" vertex="1" connectable="0">
                    <mxGeometry x="-0.8249" y="-2" relative="1" as="geometry">
                        <mxPoint as="offset"/>
                    </mxGeometry>
                </mxCell>
                <mxCell id="Oey2IrYE4KCGNufRBFbs-8" value="epoxy syntax" style="ellipse;whiteSpace=wrap;html=1;rounded=0;shadow=0;comic=0;labelBackgroundColor=none;strokeWidth=1;fontFamily=Verdana;fontSize=12;align=center;" parent="1" vertex="1">
                    <mxGeometry x="195" y="460" width="105" height="70" as="geometry"/>
                </mxCell>
                <mxCell id="Oey2IrYE4KCGNufRBFbs-15" value="&lt;span style=&quot;background-color: initial;&quot;&gt;- data with prose&lt;/span&gt;&lt;br&gt;- reproducible&lt;br&gt;- render to all things" style="text;html=1;strokeColor=none;fillColor=none;align=left;verticalAlign=middle;whiteSpace=wrap;rounded=0;" parent="1" vertex="1">
                    <mxGeometry x="10" y="330" width="110" height="30" as="geometry"/>
                </mxCell>
                <mxCell id="Oey2IrYE4KCGNufRBFbs-17" value="- inline -&amp;gt; epoxy chunk&lt;br&gt;- backticks -&amp;gt; {}&lt;br&gt;- formatting!" style="text;html=1;strokeColor=none;fillColor=none;align=left;verticalAlign=middle;whiteSpace=wrap;rounded=0;" parent="1" vertex="1">
                    <mxGeometry x="10" y="480" width="130" height="30" as="geometry"/>
                </mxCell>
                <mxCell id="Oey2IrYE4KCGNufRBFbs-28" value="" style="edgeStyle=orthogonalEdgeStyle;rounded=0;orthogonalLoop=1;jettySize=auto;html=1;" parent="1" source="Oey2IrYE4KCGNufRBFbs-24" target="Oey2IrYE4KCGNufRBFbs-27" edge="1">
                    <mxGeometry relative="1" as="geometry"/>
                </mxCell>
                <mxCell id="Oey2IrYE4KCGNufRBFbs-24" value="&lt;span&gt;pre-built options&lt;br&gt;&lt;/span&gt;" style="ellipse;whiteSpace=wrap;html=1;rounded=0;shadow=0;comic=0;labelBackgroundColor=none;strokeWidth=1;fontFamily=Verdana;fontSize=12;align=center;" parent="1" vertex="1">
                    <mxGeometry x="450" y="300" width="95" height="65" as="geometry"/>
                </mxCell>
                <mxCell id="Oey2IrYE4KCGNufRBFbs-30" value="" style="edgeStyle=orthogonalEdgeStyle;rounded=0;orthogonalLoop=1;jettySize=auto;html=1;" parent="1" source="Oey2IrYE4KCGNufRBFbs-27" target="Oey2IrYE4KCGNufRBFbs-29" edge="1">
                    <mxGeometry relative="1" as="geometry"/>
                </mxCell>
                <mxCell id="Oey2IrYE4KCGNufRBFbs-27" value="&lt;span&gt;can be nested&lt;br&gt;&lt;/span&gt;" style="ellipse;whiteSpace=wrap;html=1;rounded=0;shadow=0;comic=0;labelBackgroundColor=none;strokeWidth=1;fontFamily=Verdana;fontSize=12;align=center;fillColor=default;strokeColor=default;" parent="1" vertex="1">
                    <mxGeometry x="450" y="415" width="95" height="65" as="geometry"/>
                </mxCell>
                <mxCell id="Oey2IrYE4KCGNufRBFbs-29" value="&lt;span&gt;bring your own!&lt;br&gt;&lt;/span&gt;" style="ellipse;whiteSpace=wrap;html=1;rounded=0;shadow=0;comic=0;labelBackgroundColor=none;strokeWidth=1;fontFamily=Verdana;fontSize=12;align=center;fillColor=default;strokeColor=default;" parent="1" vertex="1">
                    <mxGeometry x="450" y="540" width="95" height="65" as="geometry"/>
                </mxCell>
                <mxCell id="Oey2IrYE4KCGNufRBFbs-39" style="edgeStyle=orthogonalEdgeStyle;rounded=0;orthogonalLoop=1;jettySize=auto;html=1;exitX=1;exitY=0.5;exitDx=0;exitDy=0;entryX=0;entryY=0.5;entryDx=0;entryDy=0;" parent="1" source="Oey2IrYE4KCGNufRBFbs-31" target="Oey2IrYE4KCGNufRBFbs-38" edge="1">
                    <mxGeometry relative="1" as="geometry"/>
                </mxCell>
                <mxCell id="Oey2IrYE4KCGNufRBFbs-49" style="rounded=0;orthogonalLoop=1;jettySize=auto;html=1;exitX=0.263;exitY=0.969;exitDx=0;exitDy=0;entryX=0.5;entryY=0;entryDx=0;entryDy=0;exitPerimeter=0;" parent="1" source="Oey2IrYE4KCGNufRBFbs-56" target="Oey2IrYE4KCGNufRBFbs-40" edge="1">
                    <mxGeometry relative="1" as="geometry"/>
                </mxCell>
                <mxCell id="Oey2IrYE4KCGNufRBFbs-53" value="really powered by..." style="edgeLabel;html=1;align=center;verticalAlign=middle;resizable=0;points=[];" parent="Oey2IrYE4KCGNufRBFbs-49" vertex="1" connectable="0">
                    <mxGeometry x="-0.2" y="-1" relative="1" as="geometry">
                        <mxPoint as="offset"/>
                    </mxGeometry>
                </mxCell>
                <mxCell id="Oey2IrYE4KCGNufRBFbs-68" style="rounded=0;orthogonalLoop=1;jettySize=auto;html=1;entryX=0;entryY=0;entryDx=0;entryDy=0;exitX=0.632;exitY=0.923;exitDx=0;exitDy=0;exitPerimeter=0;" parent="1" source="Oey2IrYE4KCGNufRBFbs-31" target="Oey2IrYE4KCGNufRBFbs-56" edge="1">
                    <mxGeometry relative="1" as="geometry">
                        <mxPoint x="740" y="400" as="sourcePoint"/>
                    </mxGeometry>
                </mxCell>
                <mxCell id="Oey2IrYE4KCGNufRBFbs-31" value="chunks!" style="ellipse;whiteSpace=wrap;html=1;rounded=0;shadow=0;comic=0;labelBackgroundColor=none;strokeWidth=1;fontFamily=Verdana;fontSize=12;align=center;fillColor=default;strokeColor=default;" parent="1" vertex="1">
                    <mxGeometry x="700" y="300" width="95" height="65" as="geometry"/>
                </mxCell>
                <mxCell id="Oey2IrYE4KCGNufRBFbs-54" style="edgeStyle=orthogonalEdgeStyle;rounded=0;orthogonalLoop=1;jettySize=auto;html=1;exitX=1;exitY=0.5;exitDx=0;exitDy=0;entryX=0;entryY=0.5;entryDx=0;entryDy=0;" parent="1" source="Oey2IrYE4KCGNufRBFbs-33" target="Oey2IrYE4KCGNufRBFbs-47" edge="1">
                    <mxGeometry relative="1" as="geometry"/>
                </mxCell>
                <mxCell id="Oey2IrYE4KCGNufRBFbs-33" value="scripts" style="ellipse;whiteSpace=wrap;html=1;rounded=0;shadow=0;comic=0;labelBackgroundColor=none;strokeWidth=1;fontFamily=Verdana;fontSize=12;align=center;fillColor=default;strokeColor=default;" parent="1" vertex="1">
                    <mxGeometry x="700" y="746" width="95" height="65" as="geometry"/>
                </mxCell>
                <mxCell id="Oey2IrYE4KCGNufRBFbs-38" value="- md, html, latex&lt;br&gt;- nice knitr features&lt;br&gt;- Rmd or quarto-r" style="text;html=1;strokeColor=none;fillColor=none;align=left;verticalAlign=middle;whiteSpace=wrap;rounded=0;" parent="1" vertex="1">
                    <mxGeometry x="840" y="317.5" width="110" height="30" as="geometry"/>
                </mxCell>
                <mxCell id="Oey2IrYE4KCGNufRBFbs-43" style="edgeStyle=orthogonalEdgeStyle;rounded=0;orthogonalLoop=1;jettySize=auto;html=1;exitX=1;exitY=0.5;exitDx=0;exitDy=0;" parent="1" source="Oey2IrYE4KCGNufRBFbs-40" target="Oey2IrYE4KCGNufRBFbs-42" edge="1">
                    <mxGeometry relative="1" as="geometry"/>
                </mxCell>
                <mxCell id="Oey2IrYE4KCGNufRBFbs-44" style="edgeStyle=orthogonalEdgeStyle;rounded=0;orthogonalLoop=1;jettySize=auto;html=1;exitX=1;exitY=0.5;exitDx=0;exitDy=0;entryX=0;entryY=0.5;entryDx=0;entryDy=0;dashed=1;" parent="1" source="Oey2IrYE4KCGNufRBFbs-29" target="1ea317790d2ca983-3" edge="1">
                    <mxGeometry relative="1" as="geometry"/>
                </mxCell>
                <mxCell id="Oey2IrYE4KCGNufRBFbs-50" style="edgeStyle=orthogonalEdgeStyle;rounded=0;orthogonalLoop=1;jettySize=auto;html=1;exitX=0.5;exitY=1;exitDx=0;exitDy=0;entryX=0.5;entryY=0;entryDx=0;entryDy=0;" parent="1" source="Oey2IrYE4KCGNufRBFbs-40" target="Oey2IrYE4KCGNufRBFbs-33" edge="1">
                    <mxGeometry relative="1" as="geometry"/>
                </mxCell>
                <mxCell id="Oey2IrYE4KCGNufRBFbs-52" value="which means..." style="edgeLabel;html=1;align=center;verticalAlign=middle;resizable=0;points=[];" parent="Oey2IrYE4KCGNufRBFbs-50" vertex="1" connectable="0">
                    <mxGeometry x="-0.3231" y="1" relative="1" as="geometry">
                        <mxPoint as="offset"/>
                    </mxGeometry>
                </mxCell>
                <mxCell id="Oey2IrYE4KCGNufRBFbs-40" value="&lt;span&gt;glue &amp;amp; cli&lt;br&gt;&lt;/span&gt;" style="ellipse;whiteSpace=wrap;html=1;rounded=0;shadow=0;comic=0;labelBackgroundColor=none;strokeWidth=1;fontFamily=Verdana;fontSize=12;align=center;fillColor=default;strokeColor=default;" parent="1" vertex="1">
                    <mxGeometry x="700" y="616" width="95" height="65" as="geometry"/>
                </mxCell>
                <mxCell id="Oey2IrYE4KCGNufRBFbs-42" value="- built on glue&lt;br&gt;- inspired by cli&lt;br&gt;- batteries included" style="text;html=1;strokeColor=none;fillColor=none;align=left;verticalAlign=middle;whiteSpace=wrap;rounded=0;" parent="1" vertex="1">
                    <mxGeometry x="840" y="633.5" width="110" height="30" as="geometry"/>
                </mxCell>
                <mxCell id="Oey2IrYE4KCGNufRBFbs-47" value="epoxy functions" style="text;html=1;strokeColor=none;fillColor=none;align=left;verticalAlign=middle;whiteSpace=wrap;rounded=0;" parent="1" vertex="1">
                    <mxGeometry x="850" y="763.5" width="110" height="30" as="geometry"/>
                </mxCell>
                <mxCell id="Oey2IrYE4KCGNufRBFbs-71" style="edgeStyle=orthogonalEdgeStyle;rounded=0;orthogonalLoop=1;jettySize=auto;html=1;exitX=0.5;exitY=1;exitDx=0;exitDy=0;entryX=0.5;entryY=0;entryDx=0;entryDy=0;" parent="1" source="Oey2IrYE4KCGNufRBFbs-55" target="Oey2IrYE4KCGNufRBFbs-70" edge="1">
                    <mxGeometry relative="1" as="geometry"/>
                </mxCell>
                <mxCell id="Oey2IrYE4KCGNufRBFbs-55" value="Shiny!" style="ellipse;whiteSpace=wrap;html=1;rounded=0;shadow=0;comic=0;labelBackgroundColor=none;strokeWidth=1;fontFamily=Verdana;fontSize=14;align=center;fillColor=#ffcc99;strokeColor=#36393d;" parent="1" vertex="1">
                    <mxGeometry x="1180" y="160" width="95" height="65" as="geometry"/>
                </mxCell>
                <mxCell id="Oey2IrYE4KCGNufRBFbs-58" value="" style="rounded=0;orthogonalLoop=1;jettySize=auto;html=1;" parent="1" source="Oey2IrYE4KCGNufRBFbs-56" target="Oey2IrYE4KCGNufRBFbs-57" edge="1">
                    <mxGeometry relative="1" as="geometry"/>
                </mxCell>
                <mxCell id="Oey2IrYE4KCGNufRBFbs-56" value="Reusable" style="ellipse;whiteSpace=wrap;html=1;rounded=0;shadow=0;comic=0;labelBackgroundColor=none;strokeWidth=1;fontFamily=Verdana;fontSize=14;align=center;fillColor=#ffcc99;strokeColor=#36393d;" parent="1" vertex="1">
                    <mxGeometry x="800" y="430" width="95" height="65" as="geometry"/>
                </mxCell>
                <mxCell id="Oey2IrYE4KCGNufRBFbs-60" style="edgeStyle=orthogonalEdgeStyle;rounded=0;orthogonalLoop=1;jettySize=auto;html=1;exitX=1;exitY=0.5;exitDx=0;exitDy=0;entryX=0;entryY=0.5;entryDx=0;entryDy=0;" parent="1" source="Oey2IrYE4KCGNufRBFbs-57" target="Oey2IrYE4KCGNufRBFbs-59" edge="1">
                    <mxGeometry relative="1" as="geometry"/>
                </mxCell>
                <mxCell id="Oey2IrYE4KCGNufRBFbs-62" value="" style="rounded=0;orthogonalLoop=1;jettySize=auto;html=1;" parent="1" source="Oey2IrYE4KCGNufRBFbs-57" target="Oey2IrYE4KCGNufRBFbs-61" edge="1">
                    <mxGeometry relative="1" as="geometry"/>
                </mxCell>
                <mxCell id="Oey2IrYE4KCGNufRBFbs-57" value="Vectorized" style="ellipse;whiteSpace=wrap;html=1;rounded=0;shadow=0;comic=0;labelBackgroundColor=none;strokeWidth=1;fontFamily=Verdana;fontSize=12;align=center;fillColor=default;strokeColor=default;" parent="1" vertex="1">
                    <mxGeometry x="930" y="390" width="95" height="65" as="geometry"/>
                </mxCell>
                <mxCell id="Oey2IrYE4KCGNufRBFbs-59" value="- self-templating&lt;br&gt;- over `.data`" style="text;html=1;strokeColor=none;fillColor=none;align=left;verticalAlign=middle;whiteSpace=wrap;rounded=0;" parent="1" vertex="1">
                    <mxGeometry x="1040" y="407.5" width="110" height="30" as="geometry"/>
                </mxCell>
                <mxCell id="Oey2IrYE4KCGNufRBFbs-61" value="chunk or file &lt;br&gt;reuse" style="ellipse;whiteSpace=wrap;html=1;rounded=0;shadow=0;comic=0;labelBackgroundColor=none;strokeWidth=1;fontFamily=Verdana;fontSize=12;align=center;fillColor=default;strokeColor=default;" parent="1" vertex="1">
                    <mxGeometry x="880" y="518" width="95" height="65" as="geometry"/>
                </mxCell>
                <mxCell id="3" value="" style="edgeStyle=none;html=1;" edge="1" parent="1" source="Oey2IrYE4KCGNufRBFbs-70" target="2">
                    <mxGeometry relative="1" as="geometry"/>
                </mxCell>
                <mxCell id="5" style="edgeStyle=none;html=1;exitX=1;exitY=0.5;exitDx=0;exitDy=0;" edge="1" parent="1" source="Oey2IrYE4KCGNufRBFbs-70" target="4">
                    <mxGeometry relative="1" as="geometry"/>
                </mxCell>
                <mxCell id="Oey2IrYE4KCGNufRBFbs-70" value="ui" style="ellipse;whiteSpace=wrap;html=1;rounded=0;shadow=0;comic=0;labelBackgroundColor=none;strokeWidth=1;fontFamily=Verdana;fontSize=12;align=center;fillColor=default;strokeColor=default;" parent="1" vertex="1">
                    <mxGeometry x="1180" y="290" width="95" height="65" as="geometry"/>
                </mxCell>
                <mxCell id="7" style="edgeStyle=none;html=1;exitX=1;exitY=0.5;exitDx=0;exitDy=0;entryX=0;entryY=0.5;entryDx=0;entryDy=0;" edge="1" parent="1" source="2" target="6">
                    <mxGeometry relative="1" as="geometry"/>
                </mxCell>
                <mxCell id="2" value="server" style="ellipse;whiteSpace=wrap;html=1;rounded=0;shadow=0;comic=0;labelBackgroundColor=none;strokeWidth=1;fontFamily=Verdana;fontSize=12;align=center;fillColor=default;strokeColor=default;" vertex="1" parent="1">
                    <mxGeometry x="1180" y="435" width="95" height="65" as="geometry"/>
                </mxCell>
                <mxCell id="4" value="ui_epoxy_html()" style="text;html=1;strokeColor=none;fillColor=none;align=left;verticalAlign=middle;whiteSpace=wrap;rounded=0;" vertex="1" parent="1">
                    <mxGeometry x="1320" y="307.5" width="110" height="30" as="geometry"/>
                </mxCell>
                <mxCell id="6" value="render_epoxy()" style="text;html=1;strokeColor=none;fillColor=none;align=left;verticalAlign=middle;whiteSpace=wrap;rounded=0;" vertex="1" parent="1">
                    <mxGeometry x="1330" y="452.5" width="110" height="30" as="geometry"/>
                </mxCell>
                <mxCell id="10" style="edgeStyle=none;html=1;exitX=0.55;exitY=0.95;exitDx=0;exitDy=0;exitPerimeter=0;entryX=0.5;entryY=0;entryDx=0;entryDy=0;fontSize=17;" edge="1" parent="1" source="8" target="1ea317790d2ca983-9">
                    <mxGeometry relative="1" as="geometry"/>
                </mxCell>
                <mxCell id="8" value="epoxy&lt;br&gt;super-glue" style="ellipse;shape=cloud;whiteSpace=wrap;html=1;fontSize=17;fillColor=#d80073;fontColor=#ffffff;strokeColor=#A50040;" vertex="1" parent="1">
                    <mxGeometry x="150" y="20" width="180" height="120" as="geometry"/>
                </mxCell>
            </root>
        </mxGraphModel>
    </diagram>
</mxfile>
